<svg width="134" height="43" viewBox="0 0 134 43" fill="none" xmlns="http://www.w3.org/2000/svg">
<path d="M50.4 16.68C51.04 16.68 51.48 16.8 51.72 17.04C51.9733 17.28 52.1 17.7133 52.1 18.34V26.54C52.1 27.1667 51.9733 27.6 51.72 27.84C51.48 28.08 51.04 28.2 50.4 28.2H44.9C44.26 28.2 43.8133 28.08 43.56 27.84C43.32 27.6 43.2 27.1667 43.2 26.54V18.34C43.2 17.7133 43.32 17.28 43.56 17.04C43.8133 16.8 44.26 16.68 44.9 16.68H50.4ZM49.56 19.3C49.56 18.9933 49.4067 18.84 49.1 18.84H46.2C45.8933 18.84 45.74 18.9933 45.74 19.3V25.58C45.74 25.8867 45.8933 26.04 46.2 26.04H49.1C49.4067 26.04 49.56 25.8867 49.56 25.58V19.3ZM58.98 21.24C59.3 21.24 59.5333 21.3467 59.68 21.56C59.8267 21.7733 59.9 22.0333 59.9 22.34C59.9 22.6467 59.8267 22.9133 59.68 23.14C59.5333 23.3533 59.3 23.46 58.98 23.46H57.1V31.74C57.1 32.1133 56.9667 32.3867 56.7 32.56C56.4467 32.7333 56.1533 32.82 55.82 32.82C55.4867 32.82 55.1867 32.7333 54.92 32.56C54.6667 32.3867 54.54 32.1133 54.54 31.74V16.42C54.54 16.0467 54.6667 15.7733 54.92 15.6C55.1867 15.4267 55.4867 15.34 55.82 15.34C56.1533 15.34 56.4467 15.4267 56.7 15.6C56.9667 15.7733 57.1 16.0467 57.1 16.42V21.24H58.98ZM68.3031 22.8C67.3298 22.8 66.4565 22.7333 65.6831 22.6C64.9098 22.4533 64.2498 22.24 63.7031 21.96C63.1698 21.6667 62.7565 21.3 62.4631 20.86C62.1831 20.4067 62.0431 19.8733 62.0431 19.26C62.0431 18.6467 62.1831 18.12 62.4631 17.68C62.7565 17.2267 63.1698 16.86 63.7031 16.58C64.2498 16.2867 64.9098 16.0733 65.6831 15.94C66.4565 15.7933 67.3298 15.72 68.3031 15.72C69.2765 15.72 70.1498 15.7933 70.9231 15.94C71.6965 16.0733 72.3498 16.2867 72.8831 16.58C73.4298 16.86 73.8431 17.2267 74.1231 17.68C74.4165 18.12 74.5631 18.6467 74.5631 19.26C74.5631 19.8733 74.4165 20.4067 74.1231 20.86C73.8431 21.3 73.4298 21.6667 72.8831 21.96C72.3498 22.24 71.6965 22.4533 70.9231 22.6C70.1498 22.7333 69.2765 22.8 68.3031 22.8ZM68.3031 17.76C66.9698 17.76 66.0165 17.8933 65.4431 18.16C64.8698 18.4133 64.5831 18.78 64.5831 19.26C64.5831 19.74 64.8698 20.1133 65.4431 20.38C66.0165 20.6333 66.9698 20.76 68.3031 20.76C69.6365 20.76 70.5898 20.6333 71.1631 20.38C71.7365 20.1133 72.0231 19.74 72.0231 19.26C72.0231 18.78 71.7365 18.4133 71.1631 18.16C70.5898 17.8933 69.6365 17.76 68.3031 17.76ZM60.7231 26C60.4165 26 60.1898 25.9 60.0431 25.7C59.9098 25.4867 59.8431 25.2267 59.8431 24.92C59.8431 24.6267 59.9098 24.38 60.0431 24.18C60.1898 23.9667 60.4165 23.86 60.7231 23.86H75.8831C76.1898 23.86 76.4098 23.9667 76.5431 24.18C76.6898 24.38 76.7631 24.6267 76.7631 24.92C76.7631 25.2267 76.6898 25.4867 76.5431 25.7C76.4098 25.9 76.1898 26 75.8831 26H60.7231ZM63.7031 33.96C63.0631 33.96 62.6165 33.84 62.3631 33.6C62.1231 33.36 62.0031 32.9267 62.0031 32.3V29.04C62.0031 28.4133 62.1231 27.98 62.3631 27.74C62.6165 27.5 63.0631 27.38 63.7031 27.38H72.9031C73.5431 27.38 73.9831 27.5 74.2231 27.74C74.4765 27.98 74.6031 28.4133 74.6031 29.04V32.3C74.6031 32.9267 74.4765 33.36 74.2231 33.6C73.9831 33.84 73.5431 33.96 72.9031 33.96H63.7031ZM71.6031 31.88C71.9098 31.88 72.0631 31.7267 72.0631 31.42V29.92C72.0631 29.6133 71.9098 29.46 71.6031 29.46H65.0031C64.6965 29.46 64.5431 29.6133 64.5431 29.92V31.42C64.5431 31.7267 64.6965 31.88 65.0031 31.88H71.6031ZM86.8063 17.38C86.8063 17.9933 86.9796 18.4867 87.3263 18.86C87.6729 19.22 88.1729 19.5533 88.8263 19.86C89.4263 20.1267 89.9729 20.3667 90.4663 20.58C90.9596 20.7933 91.4863 21.0133 92.0463 21.24C92.1796 21.2933 92.2863 21.38 92.3663 21.5C92.4463 21.6067 92.4996 21.7267 92.5263 21.86C92.5529 21.9933 92.5529 22.1333 92.5263 22.28C92.5129 22.4133 92.4863 22.54 92.4463 22.66C92.3396 22.9267 92.1596 23.1333 91.9063 23.28C91.6529 23.4133 91.3529 23.4133 91.0063 23.28C90.5929 23.12 90.1329 22.9333 89.6263 22.72C89.1329 22.5067 88.6529 22.2933 88.1863 22.08C87.6796 21.8533 87.2596 21.6467 86.9263 21.46C86.6063 21.2733 86.3463 21.1067 86.1463 20.96C85.9463 20.8 85.7996 20.6533 85.7063 20.52C85.6129 20.3867 85.5529 20.26 85.5263 20.14H85.5063C85.4663 20.2867 85.3996 20.4267 85.3063 20.56C85.2129 20.6933 85.0663 20.84 84.8663 21C84.6663 21.16 84.3996 21.3333 84.0663 21.52C83.7329 21.7067 83.3196 21.9133 82.8263 22.14C82.3596 22.3533 81.8729 22.5667 81.3663 22.78C80.8729 22.9933 80.4196 23.18 80.0063 23.34C79.6596 23.4733 79.3596 23.4667 79.1063 23.32C78.8663 23.1733 78.6863 22.9667 78.5663 22.7C78.5129 22.58 78.4729 22.4467 78.4463 22.3C78.4329 22.1533 78.4396 22.0133 78.4663 21.88C78.5063 21.7333 78.5596 21.6067 78.6263 21.5C78.7063 21.38 78.8196 21.2933 78.9663 21.24C79.5263 21.0133 80.0529 20.7933 80.5463 20.58C81.0396 20.3667 81.5863 20.1267 82.1863 19.86C82.8396 19.5533 83.3396 19.22 83.6863 18.86C84.0329 18.4867 84.2063 17.9933 84.2063 17.38V16.78C84.2063 16.3933 84.3329 16.1133 84.5863 15.94C84.8529 15.7667 85.1596 15.68 85.5063 15.68C85.8529 15.68 86.1529 15.7667 86.4062 15.94C86.6729 16.1133 86.8063 16.3933 86.8063 16.78V17.38ZM77.9463 27.02C77.6396 27.02 77.4129 26.9133 77.2663 26.7C77.1196 26.4867 77.0463 26.2333 77.0463 25.94C77.0463 25.66 77.1196 25.4133 77.2663 25.2C77.4129 24.9867 77.6396 24.88 77.9463 24.88H84.2463V23.5C84.2463 23.1267 84.3729 22.86 84.6263 22.7C84.8929 22.5267 85.1863 22.44 85.5063 22.44C85.8263 22.44 86.1129 22.5267 86.3663 22.7C86.6329 22.86 86.7663 23.1267 86.7663 23.5V24.88H93.0663C93.3729 24.88 93.5996 24.9867 93.7463 25.2C93.8929 25.4133 93.9663 25.66 93.9663 25.94C93.9663 26.2333 93.8929 26.4867 93.7463 26.7C93.5996 26.9133 93.3729 27.02 93.0663 27.02H77.9463ZM91.2263 31.66C91.5329 31.66 91.7596 31.7667 91.9063 31.98C92.0529 32.1933 92.1263 32.4467 92.1263 32.74C92.1263 33.0333 92.0529 33.2867 91.9063 33.5C91.7596 33.7133 91.5329 33.82 91.2263 33.82H80.9063C80.2663 33.82 79.8196 33.7 79.5663 33.46C79.3263 33.22 79.2063 32.7867 79.2063 32.16V29.06C79.2063 28.6867 79.3329 28.4133 79.5863 28.24C79.8529 28.0667 80.1596 27.98 80.5063 27.98C80.8396 27.98 81.1329 28.0667 81.3863 28.24C81.6529 28.4133 81.7863 28.6867 81.7863 29.06V31.2C81.7863 31.5067 81.9396 31.66 82.2463 31.66H91.2263ZM107.749 16.7C108.056 16.7 108.276 16.8067 108.409 17.02C108.556 17.22 108.629 17.4667 108.629 17.76C108.629 18.04 108.556 18.2867 108.409 18.5C108.276 18.7133 108.056 18.82 107.749 18.82H101.769V22.6H107.349C107.643 22.6 107.856 22.7067 107.989 22.92C108.136 23.12 108.209 23.36 108.209 23.64C108.209 23.92 108.136 24.1667 107.989 24.38C107.856 24.58 107.643 24.68 107.349 24.68H101.769V28.8H107.889C108.196 28.8 108.416 28.9067 108.549 29.12C108.696 29.3333 108.769 29.58 108.769 29.86C108.769 30.1533 108.696 30.4067 108.549 30.62C108.416 30.82 108.196 30.92 107.889 30.92H100.929C100.289 30.92 99.8427 30.8 99.5894 30.56C99.3494 30.32 99.2294 29.8867 99.2294 29.26V18.36C99.2294 17.7333 99.3494 17.3 99.5894 17.06C99.8427 16.82 100.289 16.7 100.929 16.7H107.749ZM115.857 16.7C117.351 16.7 118.504 17.0733 119.317 17.82C120.131 18.5533 120.537 19.5467 120.537 20.8V21.16C120.537 22.08 120.317 22.8467 119.877 23.46C119.451 24.06 118.864 24.5133 118.117 24.82L120.637 29.28C120.824 29.6133 120.857 29.9267 120.737 30.22C120.631 30.5133 120.424 30.7333 120.117 30.88C119.811 31.0267 119.497 31.08 119.177 31.04C118.857 31 118.611 30.8067 118.437 30.46L115.697 25.22C115.631 25.2333 115.557 25.24 115.477 25.24C115.397 25.24 115.324 25.24 115.257 25.24H112.957V29.94C112.957 30.3267 112.831 30.6067 112.577 30.78C112.324 30.9533 112.024 31.04 111.677 31.04C111.331 31.04 111.031 30.9533 110.777 30.78C110.524 30.6067 110.397 30.3267 110.397 29.94V18.36C110.397 17.7333 110.517 17.3 110.757 17.06C111.011 16.82 111.457 16.7 112.097 16.7H115.857ZM112.957 23.1H115.297C116.271 23.1 116.964 22.9333 117.377 22.6C117.791 22.2667 117.997 21.7733 117.997 21.12V20.86C117.997 20.1933 117.797 19.6933 117.397 19.36C117.011 19.0133 116.384 18.84 115.517 18.84H112.957V23.1ZM128.04 16.7C128.907 16.7 129.647 16.8067 130.26 17.02C130.887 17.22 131.4 17.5067 131.8 17.88C132.2 18.24 132.494 18.6733 132.68 19.18C132.88 19.6867 132.98 20.2333 132.98 20.82V21.1C132.98 21.6867 132.88 22.2467 132.68 22.78C132.48 23.3 132.174 23.76 131.76 24.16C131.347 24.5467 130.834 24.86 130.22 25.1C129.607 25.3267 128.88 25.44 128.04 25.44H125.16V29.94C125.16 30.3267 125.034 30.6067 124.78 30.78C124.527 30.9533 124.227 31.04 123.88 31.04C123.534 31.04 123.234 30.9533 122.98 30.78C122.727 30.6067 122.6 30.3267 122.6 29.94V18.36C122.6 17.7333 122.72 17.3 122.96 17.06C123.214 16.82 123.66 16.7 124.3 16.7H128.04ZM125.16 23.28H127.7C128.54 23.28 129.2 23.12 129.68 22.8C130.16 22.48 130.4 21.9 130.4 21.06V20.84C130.4 20.44 130.34 20.1133 130.22 19.86C130.1 19.6067 129.927 19.4067 129.7 19.26C129.487 19.1 129.227 18.9933 128.92 18.94C128.614 18.8733 128.28 18.84 127.92 18.84H125.16V23.28Z" fill="#0F1B2A"/>
<g clip-path="url(#clip0_820_5148)">
<path d="M17.5001 43.0004L3.34029 30.145C1.32308 28.3217 0.117986 25.7768 9.71537e-05 23.1533C-0.104693 20.7527 0.720531 18.4965 2.30549 16.7912C3.99523 14.994 6.33992 13.9971 8.92038 13.9971C11.5008 13.9971 13.911 14.9547 15.8235 16.6993L17.4739 18.2079L19.1243 16.6993C21.0368 14.9547 23.4863 13.9971 26.0274 13.9971C28.5686 13.9971 30.9657 14.994 32.6423 16.7912C34.2273 18.4965 35.0525 20.7527 34.9608 23.1533C34.856 25.7637 33.6378 28.3085 31.6337 30.1319L17.4739 42.9873L17.5001 43.0004ZM8.93348 16.6206C7.08655 16.6206 5.4099 17.3159 4.23101 18.5883C3.13071 19.7689 2.55436 21.3561 2.61986 23.0483C2.69845 24.9635 3.60227 26.8394 5.09553 28.1905L17.5001 39.4455L29.9047 28.1905C31.3979 26.8394 32.3017 24.9635 32.3803 23.0483C32.4458 21.3561 31.8826 19.7689 30.7692 18.5883C29.5903 17.329 27.9136 16.6206 26.0667 16.6206C24.2198 16.6206 22.3598 17.3421 20.9189 18.6408L17.5001 21.7365L14.0813 18.6408C12.6535 17.3421 10.8197 16.6206 8.93348 16.6206Z" fill="#0BA5EC"/>
<path d="M17.4998 13.5113C13.7797 13.5113 10.7539 10.4811 10.7539 6.75564C10.7539 3.0302 13.7797 0 17.4998 0C21.2198 0 24.2457 3.0302 24.2457 6.75564C24.2457 10.4811 21.2198 13.5113 17.4998 13.5113ZM17.4998 2.62355C15.2206 2.62355 13.3737 4.47315 13.3737 6.75564C13.3737 9.03813 15.2206 10.8877 17.4998 10.8877C19.779 10.8877 21.6259 9.03813 21.6259 6.75564C21.6259 4.47315 19.779 2.62355 17.4998 2.62355Z" fill="#32D583"/>
<path d="M17.4995 31.7842C14.8012 31.7842 12.6006 29.2131 12.6006 26.0386C12.6006 23.1921 15.9015 19.7028 16.5695 19.0207L17.4995 18.0762L18.4296 19.0207C19.0976 19.6897 22.3985 23.1921 22.3985 26.0386C22.3985 29.2131 20.1979 31.7842 17.4995 31.7842ZM17.4995 21.9066C16.3599 23.2708 15.2203 25.0155 15.2203 26.0386C15.2203 27.7308 16.2683 29.1607 17.4995 29.1607C18.7308 29.1607 19.7787 27.7308 19.7787 26.0386C19.7787 25.0023 18.6391 23.2577 17.4995 21.9066Z" fill="#0BA5EC"/>
</g>
<defs>
<clipPath id="clip0_820_5148">
<rect width="35" height="43" fill="white"/>
</clipPath>
</defs>
</svg>
